<svg height='100px' width='100px'  fill="#000000" xmlns="http://www.w3.org/2000/svg" xmlns:xlink="http://www.w3.org/1999/xlink" version="1.1" x="0px" y="0px" viewBox="0 0 90 90" style="enable-background:new 0 0 90 90;" xml:space="preserve"><path d="M42.3383789,20.6689453h-15.855957c-0.5522461,0-1,0.4472656-1,1v5.9462891c0,0.5527344,0.4477539,1,1,1h15.855957  c0.5522461,0,1-0.4472656,1-1v-5.9462891C43.3383789,21.1162109,42.890625,20.6689453,42.3383789,20.6689453z   M41.3383789,26.6152344h-13.855957v-3.9462891h13.855957V26.6152344z"></path><path d="M63.3530273,65.6728516c0.1894531,0.2363281,0.4765625,0.3740234,0.7797852,0.3740234  s0.590332-0.1376953,0.7797852-0.3740234l5.5830078-6.9589844c0.2407227-0.2998047,0.2880859-0.7119141,0.121582-1.0585938  c-0.1660156-0.3466797-0.5166016-0.5673828-0.9013672-0.5673828h-1.984375v-6.5332031c0-0.5527344-0.4477539-1-1-1h-5.1972656  c-0.5522461,0-1,0.4472656-1,1v6.5332031h-1.984375c-0.3847656,0-0.7353516,0.2207031-0.9013672,0.5673828  c-0.1665039,0.3466797-0.1191406,0.7587891,0.121582,1.0585938L63.3530273,65.6728516z M61.5341797,59.0878906  c0.5522461,0,1-0.4472656,1-1v-6.5332031h3.1972656v6.5332031c0,0.5527344,0.4477539,1,1,1h0.8999023l-3.4985352,4.3613281  l-3.4985352-4.3613281H61.5341797z"></path><path d="M70.7128906,68.6738281c0-0.5527344-0.4477539-1-1-1H58.5527344c-0.5522461,0-1,0.4472656-1,1s0.4477539,1,1,1h11.1601563  C70.2651367,69.6738281,70.7128906,69.2265625,70.7128906,68.6738281z"></path><path d="M80.074707,59.6142578c0-8.4525146-6.6177979-15.3704224-14.9418945-15.8907471V27.0292969  c0-0.2617188-0.1030273-0.5136719-0.2866211-0.7011719L53.4628906,14.7421875  c-0.1879883-0.1914063-0.4453125-0.2988281-0.7133789-0.2988281H10.925293c-0.5522461,0-1,0.4472656-1,1v51.1113281  c0,0.5527344,0.4477539,1,1,1h39.4038086c2.7571411,4.774292,7.9054565,8.0019531,13.8037109,8.0019531  C72.9233398,75.5566406,80.074707,68.4052734,80.074707,59.6142578z M20.4482422,16.4433594h27.9243164v24.9462891H20.4482422  V16.4433594z M11.925293,65.5546875V16.4433594h6.5229492v25.9462891c0,0.5527344,0.4477539,1,1,1h29.9243164  c0.5522461,0,1-0.4472656,1-1V16.4433594h1.9575195l10.8027344,10.9951172v16.2850342  c-8.3240967,0.5203247-14.9418945,7.4382324-14.9418945,15.8907471c0,2.1004639,0.418335,4.102356,1.159668,5.9404297H11.925293z   M50.190918,59.6142578c0-7.6875,6.2543945-13.9414063,13.9418945-13.9414063S78.074707,51.9267578,78.074707,59.6142578  s-6.2543945,13.9423828-13.9418945,13.9423828S50.190918,67.3017578,50.190918,59.6142578z"></path></svg>